<svg width="72" height="24" viewBox="0 0 72 24" fill="none" xmlns="http://www.w3.org/2000/svg">
<path d="M8.8671 0H9.50737C11.7302 0.0482758 13.9168 0.941378 15.4872 2.52241C14.9074 3.11379 14.3154 3.68103 13.7476 4.27241C12.8658 3.47586 11.8027 2.86034 10.6429 2.6431C8.9275 2.28103 7.07918 2.60689 5.6416 3.58448C4.07113 4.61034 3.00804 6.34827 2.77851 8.20689C2.52482 10.0414 3.04428 11.9724 4.24025 13.3965C5.38791 14.7845 7.13958 15.6534 8.95166 15.7138C10.6429 15.8103 12.4067 15.2914 13.6389 14.1086C14.6054 13.2758 15.0523 12.0086 15.1973 10.7776C13.1919 10.7776 11.1866 10.7896 9.1812 10.7776V8.29137H17.6255C18.0604 10.9586 17.4322 13.9638 15.4027 15.8707C14.0497 17.2224 12.1772 18.0189 10.2684 18.1758C8.42012 18.3569 6.5114 18.0069 4.86844 17.1138C2.89932 16.0638 1.32884 14.2896 0.55569 12.2017C-0.169142 10.2827 -0.181223 8.11034 0.495288 6.1793C1.1114 4.41724 2.29529 2.86034 3.81744 1.77414C5.27918 0.699999 7.05502 0.108621 8.8671 0Z" fill="white"/>
<path d="M57.3101 0.627686H59.8953V17.8621C59.0376 17.8621 58.1678 17.8742 57.3101 17.8501C57.3221 12.1173 57.3101 6.3725 57.3101 0.627686Z" fill="white"/>
<path d="M23.3758 6.60169C24.9705 6.29997 26.698 6.6379 28.0148 7.59134C29.2107 8.43617 30.0443 9.76375 30.298 11.212C30.6242 12.8896 30.2134 14.7241 29.1262 16.0517C27.9544 17.5362 26.0335 18.3327 24.1611 18.212C22.4456 18.1155 20.7785 17.2586 19.7637 15.8586C18.6161 14.3137 18.3382 12.1896 18.9664 10.3793C19.5946 8.43617 21.3705 6.95169 23.3758 6.60169ZM23.7382 8.89479C23.0859 9.06375 22.4819 9.43789 22.047 9.96893C20.8752 11.3689 20.9476 13.65 22.2403 14.9534C22.9772 15.7017 24.0886 16.0517 25.1154 15.8465C26.0698 15.6775 26.9033 15.0379 27.3624 14.1931C28.1597 12.7569 27.9302 10.7775 26.7101 9.65513C25.9248 8.931 24.7772 8.62927 23.7382 8.89479Z" fill="white"/>
<path d="M36.1812 6.60185C38.0053 6.25185 39.9986 6.75874 41.3637 8.03805C43.5865 10.0294 43.8282 13.7587 41.9315 16.0518C40.7839 17.5001 38.9235 18.2967 37.0872 18.2122C35.3355 18.1639 33.608 17.2949 32.5691 15.8587C31.3973 14.2777 31.1436 12.1053 31.808 10.2587C32.4724 8.37598 34.212 6.93978 36.1812 6.60185ZM36.5436 8.89494C35.8912 9.06391 35.2872 9.43805 34.8523 9.95701C33.6926 11.3329 33.7409 13.5777 34.9852 14.8932C35.7221 15.6777 36.8698 16.0639 37.9328 15.8467C38.8751 15.6656 39.7208 15.038 40.1798 14.1932C40.9651 12.7449 40.7355 10.7656 39.5033 9.64322C38.7181 8.91908 37.5704 8.62943 36.5436 8.89494Z" fill="white"/>
<path d="M47.0416 7.30173C48.4309 6.43277 50.2792 6.19139 51.7772 6.93966C52.2483 7.14484 52.6349 7.49483 53.0094 7.84483C53.0215 7.51897 53.0094 7.18104 53.0215 6.84311C53.8309 6.85518 54.6403 6.84311 55.4617 6.85518V17.5C55.4497 19.1052 55.0389 20.8069 53.8792 21.9776C52.6107 23.269 50.6658 23.6672 48.9141 23.4017C47.0416 23.1241 45.4107 21.7603 44.6859 20.0345C45.4107 19.6845 46.1718 19.4069 46.9208 19.081C47.3436 20.0707 48.2013 20.9155 49.2765 21.1086C50.3517 21.3017 51.596 21.0362 52.2966 20.1431C53.0456 19.2259 53.0456 17.9707 53.0094 16.8483C52.4537 17.3914 51.8134 17.8741 51.0403 18.0552C49.3611 18.5259 47.5128 17.9465 46.2201 16.8121C44.9154 15.6776 44.1423 13.9276 44.2148 12.1897C44.251 10.2224 45.3624 8.32759 47.0416 7.30173ZM49.5423 8.84656C48.8054 8.96725 48.1168 9.37759 47.6456 9.94483C46.5101 11.2966 46.5101 13.4569 47.6577 14.7845C48.3101 15.569 49.3611 16.0034 50.3758 15.8948C51.3302 15.7983 52.2121 15.1948 52.6832 14.3621C53.4805 12.95 53.3477 11.031 52.2725 9.8C51.6081 9.03966 50.545 8.66552 49.5423 8.84656Z" fill="white"/>
<path d="M63 7.91721C64.4497 6.56549 66.6846 6.10687 68.545 6.81894C70.3087 7.48273 71.4322 9.16031 72 10.8862C69.3785 11.9724 66.7691 13.0465 64.1477 14.1327C64.5101 14.8206 65.0658 15.4482 65.8148 15.7017C66.8658 16.0758 68.1222 15.9431 69.004 15.2431C69.3544 14.9775 69.6322 14.6275 69.898 14.2896C70.5624 14.7362 71.2269 15.1706 71.8913 15.6172C70.949 17.0293 69.3665 18.0189 67.6631 18.1758C65.7785 18.4051 63.7732 17.681 62.553 16.2086C60.5476 13.8913 60.7409 10.0051 63 7.91721ZM64.2926 10.15C63.8819 10.7413 63.7128 11.4655 63.7248 12.1775C65.4765 11.4534 67.2282 10.7293 68.9799 9.99307C68.6899 9.31721 67.9893 8.90687 67.2765 8.79825C66.1289 8.59307 64.9329 9.20859 64.2926 10.15Z" fill="white"/>
</svg>
